<svg width="25" height="19" viewBox="0 0 25 19" xmlns="http://www.w3.org/2000/svg">
<g clip-path="url(#clip0)">
<path d="M24.5827 6.60285H22.0976C21.8671 6.60285 21.6802 6.78972 21.6802 7.02023V9.35036C21.1837 8.86696 20.5064 8.56843 19.7603 8.56843H13.6285C13.7532 8.37258 13.8736 8.17292 13.9878 7.96965C14.0592 7.8426 14.0592 7.68752 13.9878 7.56052C12.8785 5.58869 11.3163 4.02643 9.3444 2.91715C9.21735 2.84562 9.06218 2.84562 8.93508 2.91715C6.96276 4.02706 5.40069 5.58937 4.29229 7.56057C4.22091 7.68757 4.22091 7.8426 4.29229 7.96965C4.41739 8.19216 4.54923 8.41081 4.68668 8.62424C4.16134 8.73176 3.69034 8.98972 3.31983 9.35036V1.01641C3.31983 0.785895 3.13297 0.59903 2.90245 0.59903H0.417384C0.186866 0.59903 0 0.785895 0 1.01641V2.97403C0 3.20455 0.186866 3.39142 0.417384 3.39142C0.647902 3.39142 0.834767 3.20455 0.834767 2.97403V1.4338H2.48506V17.5662H0.834767V4.53229C0.834767 4.30177 0.647902 4.11491 0.417384 4.11491C0.186866 4.11491 0 4.30177 0 4.53229V17.9835C0 18.2141 0.186866 18.4009 0.417384 18.4009H2.90245C3.13297 18.4009 3.31983 18.2141 3.31983 17.9835V16.6014H21.6802V17.9835C21.6802 18.2141 21.8671 18.4009 22.0976 18.4009H24.5827C24.8132 18.4009 25.0001 18.2141 25.0001 17.9835V7.02023C25.0001 6.78972 24.8132 6.60285 24.5827 6.60285ZM9.13981 3.76251C10.8126 4.74757 12.1574 6.09245 13.1425 7.76521C12.9798 8.04167 12.806 8.31018 12.6242 8.56843H5.65597C5.47413 8.31018 5.3003 8.04162 5.13756 7.76516C6.12189 6.09294 7.46657 4.74811 9.13981 3.76251ZM21.6802 15.7666H3.31983V11.8026H18.1136C18.3441 11.8026 18.531 11.6157 18.531 11.3852C18.531 11.1547 18.3441 10.9678 18.1136 10.9678H3.35274C3.51978 10.0784 4.30235 9.4032 5.23966 9.4032H19.7603C20.6976 9.4032 21.4802 10.0783 21.6473 10.9678H19.5049C19.2744 10.9678 19.0875 11.1547 19.0875 11.3852C19.0875 11.6157 19.2744 11.8026 19.5049 11.8026H21.6802V15.7666H21.6802ZM24.1653 17.5662H22.515V7.43762H24.1653V17.5662Z" />
</g>
<defs>
<clipPath id="clip0">
<rect width="25" height="19" fill="white"/>
</clipPath>
</defs>
</svg>
