<svg width="25" height="25" viewBox="0 0 25 25" xmlns="http://www.w3.org/2000/svg">
<g clip-path="url(#clip0)">
<path d="M25 6.33431C25 5.39653 24.3444 4.63363 23.5385 4.63363C23.2996 4.63363 23.1059 4.85897 23.1059 5.13698C23.1059 5.41494 23.2995 5.64033 23.5385 5.64033C23.8673 5.64033 24.1349 5.95175 24.1349 6.33437C24.1349 6.71698 23.8673 7.0284 23.5385 7.0284H23.4451C23.4453 7.0284 23.445 7.0284 23.4451 7.0284H7.36064L7.64922 3.62141C7.66123 3.47999 7.62129 3.33925 7.53931 3.23403C7.45728 3.12874 7.34092 3.06869 7.21875 3.06869H5.87495C6.07832 2.05426 7.00039 1.27437 7.91426 1.05977C8.14839 1.00471 8.2999 0.739313 8.25264 0.466756C8.20542 0.194313 7.97773 0.0179495 7.74302 0.0729495C7.32148 0.171927 6.94687 0.336245 6.61934 0.546415L6.59302 0.390449C6.54697 0.117722 6.32026 -0.0601187 6.08525 -0.00665278C5.85088 0.0468131 5.69805 0.311301 5.74399 0.584142L5.8501 1.21403C5.6752 1.41641 5.52539 1.6342 5.402 1.8609C4.95562 1.04034 4.1686 0.33312 3.06123 0.0730063C2.82715 0.0180631 2.59883 0.194313 2.55161 0.466813C2.50439 0.739256 2.65586 1.00477 2.88999 1.05982C3.13027 1.11624 3.371 1.2121 3.59917 1.34062C3.42085 1.49897 3.37476 1.79289 3.49941 2.01505C3.58232 2.163 3.7208 2.2434 3.86206 2.2434C3.94307 2.2434 4.02505 2.21687 4.098 2.16158L4.3644 1.95937C4.64067 2.2742 4.8457 2.65147 4.9293 3.06863H3.67207C3.55 3.06863 3.43354 3.12869 3.35151 3.23397C3.26948 3.33925 3.22959 3.47994 3.2416 3.62136L3.53018 7.02834H1.46147C1.13262 7.02834 0.865039 6.71692 0.865039 6.33431C0.865039 5.9517 1.13267 5.64028 1.46147 5.64028C1.70039 5.64028 1.89404 5.41494 1.89404 5.13692C1.89404 4.85897 1.70044 4.63357 1.46147 4.63357C0.655615 4.63351 0 5.39653 0 6.33431C0 7.27209 0.655615 8.03499 1.46152 8.03499H1.55518C2.30298 9.01226 2.51699 10.3991 2.09551 11.625L1.17505 14.3028C0.366992 16.6536 0.671924 19.2866 1.92739 21.2882H1.20571C0.966797 21.2882 0.773144 21.5135 0.773144 21.7915V24.5128C0.773144 24.7908 0.966748 25.0162 1.20571 25.0162H20.2216C20.4605 25.0162 20.6542 24.7908 20.6542 24.5128C20.6542 24.2348 20.4606 24.0095 20.2216 24.0095H1.63828V22.2948H23.5487V24.0095H21.6635C21.4246 24.0095 21.2309 24.2348 21.2309 24.5128C21.2309 24.7908 21.4245 25.0162 21.6635 25.0162H23.9813C24.2202 25.0162 24.4139 24.7908 24.4139 24.5128V21.7915C24.4139 21.5136 24.2203 21.2882 23.9813 21.2882H23.2596C24.5151 19.2866 24.8201 16.6537 24.0119 14.3028L23.0915 11.625C22.6694 10.3973 22.8846 9.00834 23.635 8.03084C24.396 7.97283 25 7.23425 25 6.33431ZM6.7415 4.07533L6.49131 7.02834H4.39951L4.14932 4.07533H6.7415ZM3.04854 21.2882C1.6209 19.5158 1.19897 16.9439 1.97837 14.6767L2.89883 11.999C3.35229 10.6798 3.23545 9.21618 2.6249 8.03505H4.19951C4.7498 9.02902 4.90083 10.4251 4.57954 11.6669L3.88662 14.3446C3.28257 16.6791 3.51982 19.3015 4.47461 21.2882L3.04854 21.2882ZM9.51997 11.7597L9.27896 14.4374C9.07095 16.749 9.16045 19.3533 9.50225 21.2883H8.01289C7.321 19.4715 7.12534 16.8838 7.51914 14.5883L7.71738 13.4331C7.76421 13.1605 7.61221 12.8954 7.37793 12.841C7.14336 12.7868 6.91582 12.9635 6.86909 13.2361L6.67085 14.3913C6.27266 16.7119 6.43677 19.3239 7.07842 21.2883H5.49214C4.4311 19.4983 4.12407 16.9179 4.71484 14.6349L5.40776 11.9572C5.74487 10.6543 5.65034 9.20266 5.1833 8.0351H6.8834H6.89644C7.2459 9.04726 7.34209 10.4789 7.13032 11.7136C7.0835 11.9862 7.2355 12.2513 7.46982 12.3057C7.49839 12.3124 7.52686 12.3155 7.55493 12.3155C7.75698 12.3155 7.9376 12.1499 7.97866 11.9106C8.19961 10.6226 8.13193 9.18306 7.81602 8.03505H9.40752C9.58818 9.0851 9.63364 10.4966 9.51997 11.7597ZM12.0674 21.2882H10.3866C10.0303 19.4374 9.93203 16.8444 10.1392 14.5422L10.3802 11.8645C10.4952 10.587 10.4566 9.15806 10.2869 8.03505H12.0674V21.2882ZM14.8004 21.2882H12.9325V8.03505H14.9001C14.7305 9.15806 14.6918 10.587 14.8068 11.8645L15.0479 14.5422C15.2551 16.8445 15.1568 19.4375 14.8004 21.2882ZM17.1741 21.2882H15.6848C16.0267 19.3532 16.1162 16.7489 15.9081 14.4373L15.6671 11.7595C15.5534 10.4965 15.5988 9.08499 15.7795 8.03493H17.371C17.0551 9.18294 16.9874 10.6225 17.2084 11.9106L17.6679 14.5883C18.0617 16.8838 17.8662 19.4713 17.1741 21.2882ZM23.2087 14.6766C23.9881 16.9439 23.5662 19.5158 22.1386 21.2881H20.713C21.1187 20.4452 21.4003 19.4775 21.5377 18.4423C21.5743 18.1676 21.4124 17.9104 21.1763 17.868C20.9396 17.8254 20.7192 18.014 20.6828 18.2886C20.5329 19.4171 20.1924 20.4483 19.6949 21.2881H18.1086C18.7503 19.3237 18.9144 16.7117 18.5163 14.3911L18.0568 11.7134C17.845 10.4786 17.9413 9.04698 18.2907 8.03488H20.0038C19.5367 9.20243 19.4422 10.6541 19.7793 11.957L20.4722 14.6347C20.6501 15.3222 20.7485 16.0458 20.7648 16.7856C20.7708 17.0591 20.9632 17.2761 21.1969 17.2761C21.2007 17.2761 21.2044 17.2761 21.2082 17.276C21.447 17.2689 21.6356 17.0379 21.6296 16.76C21.6114 15.9306 21.5006 15.1179 21.3005 14.3445L20.6076 11.6668C20.2863 10.425 20.4373 9.02885 20.9875 8.03488H22.5621C21.9515 9.21601 21.8346 10.6796 22.2881 11.9988L23.2087 14.6766Z" />
</g>
<defs>
<clipPath id="clip0">
<rect width="25" height="25" fill="white"/>
</clipPath>
</defs>
</svg>
