<svg width="25" height="21" viewBox="0 0 25 21" xmlns="http://www.w3.org/2000/svg">
<g clip-path="url(#clip0)">
<path d="M24.5777 0.0154648H6.61597C6.38276 0.0154648 6.19365 0.200265 6.19365 0.428258C6.19365 0.656251 6.38271 0.841051 6.61597 0.841051H24.1554V2.10349H23.6768H1.32319H0.84458V0.841051H5.2083C5.4415 0.841051 5.63062 0.656251 5.63062 0.428258C5.63062 0.200265 5.44155 0.0154648 5.2083 0.0154648H0.422314C0.189063 0.0154648 0 0.200312 0 0.428258V2.51623C0 2.74418 0.189063 2.92902 0.422314 2.92902H0.900928V20.5717C0.900928 20.7997 1.08999 20.9845 1.32324 20.9845H23.6769C23.9101 20.9845 24.0992 20.7997 24.0992 20.5717V2.92902H24.5778C24.8111 2.92902 25.0001 2.74422 25.0001 2.51623V0.428258C25 0.200312 24.811 0.0154648 24.5777 0.0154648ZM23.2545 18.3978H21.7061C21.4728 18.3978 21.2837 18.5826 21.2837 18.8106C21.2837 19.0386 21.4728 19.2234 21.7061 19.2234H23.2545V20.159H1.74551V19.2234H20.2984C20.5317 19.2234 20.7208 19.0386 20.7208 18.8106C20.7208 18.5827 20.5317 18.3978 20.2984 18.3978H17.6521V10.9319C17.6521 8.15516 15.3409 5.89604 12.5 5.89604C9.65913 5.89604 7.348 8.15516 7.348 10.9319V12.5914C7.348 12.8194 7.53706 13.0042 7.77031 13.0042C8.00356 13.0042 8.19263 12.8194 8.19263 12.5914V10.9319C8.19263 8.61034 10.125 6.72158 12.5 6.72158C14.8751 6.72158 16.8075 8.61034 16.8075 10.9319V18.3978H15.2479L15.4568 18.2528C15.6469 18.1209 15.6917 17.8632 15.5567 17.6773L14.4486 16.1511C14.3838 16.0619 14.2854 16.0014 14.175 15.9831C14.0646 15.9648 13.9511 15.9901 13.8598 16.0535L12.5002 16.9966L11.1403 16.0535C11.049 15.9901 10.9356 15.9648 10.8252 15.9831C10.7148 16.0014 10.6164 16.0618 10.5515 16.1511L9.44341 17.6773C9.30845 17.8632 9.35313 18.1209 9.54331 18.2528L9.75239 18.3978H8.19273V13.9673C8.19273 13.7394 8.00366 13.5545 7.77041 13.5545C7.53716 13.5545 7.3481 13.7393 7.3481 13.9673V18.3978H1.74551V2.92902H7.03828H6.5L3.60356 2.10349C3.37036 2.10349 3.18125 2.28829 3.18125 2.51628C3.18125 2.74427 3.37031 2.92907 3.60356 2.92907L5.63062 2.92902L5.91211 2.10349H4.87041C4.63721 2.10349 4.4481 2.28829 4.4481 2.51628C4.4481 2.74427 4.63716 2.92907 4.87041 2.92907H8.36138C8.59458 2.92907 8.78369 2.74427 8.78369 2.51628C8.78369 2.28829 8.59463 2.10349 8.36138 2.10349H6.75664L7.03828 2.92902H9.5H9.61404C10.114 2.92902 9.80391 2.92902 10.0372 2.92902C10.2704 2.92902 9.8223 2.92902 10.3223 2.92902H10.4373H11.0642C11.2974 2.92902 11 2.72799 11 2.49999C11.2333 2.49999 11 2.272 11 2.49999L8.19263 2.92902H7.88291H23.2545L23.2545 18.3978ZM10.3765 17.8186L10.9958 16.9656L13.0608 18.3978H11.2118L10.3765 17.8186ZM13.2299 17.5027L14.0042 16.9656L14.6235 17.8186L14.1544 18.144L13.2299 17.5027Z" />
<path d="M22.0405 12H19.4223C19.1891 12 19 12.1848 19 12.4128C19 12.6407 19.1891 12.8256 19.4223 12.8256H19.9291V13.5135C19.9291 13.7415 20.1181 13.9263 20.3514 13.9263C20.5846 13.9263 20.7737 13.7415 20.7737 13.5135V12.8255H22.0406C22.2738 12.8255 22.4629 12.6407 22.4629 12.4127C22.4628 12.1848 22.2738 12 22.0405 12Z" />
<path d="M14.9532 10.751C14.8295 10.5577 14.5691 10.4989 14.3712 10.6198C14.1734 10.7405 14.1133 10.9952 14.2369 11.1886C14.669 11.8646 14.8457 12.5577 14.7618 13.2485C14.6787 13.9333 14.2789 14.3387 13.889 14.5745C13.8898 14.5477 13.8902 14.5206 13.8902 14.4933C13.8902 13.9406 13.5911 13.5946 13.3272 13.2894C13.0647 12.9858 12.838 12.7235 12.8128 12.2242C12.8052 12.0754 12.7163 11.9421 12.58 11.8754C12.4437 11.8087 12.2812 11.819 12.1549 11.9023C11.0679 12.6189 10.6917 13.6062 11.0888 14.6522C10.6826 14.4384 10.2352 14.043 10.2187 13.3356C10.2008 12.5644 10.5423 12.2521 11.015 11.8198C11.5546 11.3263 12.2079 10.7288 12.379 9.37397C12.6777 9.57557 13.0558 9.85888 13.4224 10.212C13.5885 10.372 13.8559 10.3701 14.0196 10.2077C14.1833 10.0454 14.1813 9.784 14.0151 9.62402C13.1426 8.78359 12.2347 8.3107 12.1965 8.29104C12.0656 8.22355 11.9082 8.2279 11.7813 8.30259C11.6545 8.37728 11.5771 8.5114 11.5771 8.65611C11.5771 10.1752 11.0238 10.6812 10.438 11.2171C9.92705 11.6844 9.3479 12.2142 9.37441 13.3545C9.398 14.37 10.0593 15.2003 11.1435 15.5756C11.2204 15.6021 11.2993 15.6151 11.3772 15.6151C11.5749 15.6151 11.7664 15.5322 11.902 15.3793C12.0924 15.1646 12.1285 14.8633 11.9938 14.6119C11.6666 14.001 11.7104 13.4701 12.1305 13.0024C12.276 13.3525 12.4935 13.6042 12.6821 13.8224C12.9209 14.0987 13.0456 14.254 13.0456 14.4934C13.0456 14.5785 13.0404 14.6591 13.0302 14.7328C12.9957 14.9808 13.103 15.2269 13.3102 15.375C13.518 15.5235 13.7915 15.5489 14.0239 15.4412C14.9275 15.0219 15.4874 14.2778 15.6006 13.3459C15.7076 12.4636 15.4898 11.5906 14.9532 10.751Z" />
</g>
<defs>
<clipPath id="clip0">
<rect width="25" height="21" fill="white"/>
</clipPath>
</defs>
</svg>
