<svg width="27" height="25" viewBox="0 0 27 25" xmlns="http://www.w3.org/2000/svg">
<g clip-path="url(#clip0)">
<path d="M26.1177 12.9923L17.4469 4.1839V1.70791H20.7101V6.68536C20.7101 6.9387 20.9123 7.14411 21.1617 7.14411C21.4111 7.14411 21.6133 6.9387 21.6133 6.68536V1.24916C21.6133 0.995831 21.4111 0.790415 21.1617 0.790415H16.9953C16.746 0.790415 16.5438 0.995831 16.5438 1.24916V3.26646L13.4443 0.117758C13.3596 0.0317165 13.2447 -0.0166168 13.1249 -0.0166168C13.0052 -0.0166168 12.8903 0.0317165 12.8056 0.117758L9.04497 3.93812C8.8686 4.11729 8.8686 4.40776 9.04497 4.58682C9.22134 4.76599 9.50727 4.76599 9.68358 4.58682L13.125 1.09088L16.6743 4.69651C16.6755 4.69781 16.6768 4.69901 16.678 4.70026L21.6349 9.73583V24.0991H12.7703V13.5594C12.7703 13.3061 12.5681 13.1007 12.3187 13.1007H6.19797C5.9486 13.1007 5.74639 13.3061 5.74639 13.5594V24.0992H4.61508V9.73588L8.56047 5.72786C8.73684 5.5487 8.73684 5.25823 8.56047 5.07916C8.38411 4.9 8.09818 4.9 7.92186 5.07916L0.132275 12.9923C-0.0440918 13.1715 -0.0440918 13.462 0.132275 13.641C0.220408 13.7306 0.33602 13.7754 0.451582 13.7754C0.567144 13.7754 0.682705 13.7306 0.770889 13.641L3.71191 10.6533V24.5579C3.71191 24.8112 3.91412 25.0166 4.1635 25.0166H22.0864C22.3358 25.0166 22.538 24.8112 22.538 24.5579V10.6534L25.4791 13.6411C25.5672 13.7307 25.6828 13.7755 25.7984 13.7755C25.9139 13.7755 26.0295 13.7307 26.1177 13.6411C26.2941 13.462 26.2941 13.1715 26.1177 12.9923ZM11.8672 24.0992H6.64956V14.0182H11.8672V24.0992Z" />
<path d="M19.4254 13H15.4516C15.2022 13 15 13.2054 15 13.4588V17.4957C15 17.749 15.2022 17.9544 15.4516 17.9544H19.4254C19.6748 17.9544 19.877 17.749 19.877 17.4957V13.4588C19.877 13.2054 19.6748 13 19.4254 13ZM18.9739 17.0369H15.9032V13.9175H18.9739V17.0369Z" />
</g>
<defs>
<clipPath id="clip0">
<rect width="26.25" height="25" fill="white"/>
</clipPath>
</defs>
</svg>
