<svg width="25" height="25" viewBox="0 0 25 25" xmlns="http://www.w3.org/2000/svg">
<g clip-path="url(#clip0)">
<path d="M24.5741 2.19223C24.8093 2.19223 24.9999 2.00156 24.9999 1.7664V0.425829C24.9999 0.190673 24.8093 0 24.5741 0H5.30425C5.06909 0 4.87842 0.190673 4.87842 0.425829V19.6956C4.87842 19.9307 5.06909 20.1214 5.30425 20.1214H24.574C24.8092 20.1214 24.9998 19.9307 24.9998 19.6956V3.18579C24.9998 2.95063 24.8092 2.75996 24.574 2.75996C24.3388 2.75996 24.1482 2.95063 24.1482 3.18579V10.4815H22.457C22.2218 10.4815 22.0312 10.6721 22.0312 10.9073C22.0312 11.1425 22.2218 11.3331 22.457 11.3331H24.1482V19.2698H11.982V17.2094C11.982 16.9742 11.7913 16.7836 11.5561 16.7836C11.321 16.7836 11.1303 16.9742 11.1303 17.2094V19.2698H5.73008V0.851659H11.1304V14.1435C11.1304 14.3787 11.321 14.5694 11.5562 14.5694C11.7913 14.5694 11.982 14.3787 11.982 14.1435V11.3331H19.5615C19.7968 11.3331 19.9874 11.1425 19.9874 10.9073C19.9874 10.6721 19.7968 10.4815 19.5615 10.4815H11.982V0.851659H24.1483V1.7664C24.1483 2.00156 24.3388 2.19223 24.5741 2.19223Z"/>
<path d="M3.59808 2.45756L2.19295 0.200781C2.11522 0.0759276 1.9785 0 1.83148 0C1.68441 0 1.54774 0.0759276 1.47 0.200781L0.0648306 2.45756C-0.0169076 2.58886 -0.0210579 2.75415 0.0540396 2.88935C0.129137 3.02455 0.271666 3.10844 0.426304 3.10844H1.40565V4.8891C1.40565 5.12426 1.59632 5.31493 1.83148 5.31493C2.06663 5.31493 2.25731 5.12426 2.25731 4.8891V3.10844H3.23665C3.39129 3.10844 3.53382 3.0246 3.60892 2.88935C3.68401 2.7541 3.67986 2.58881 3.59808 2.45756ZM1.19305 2.25678L1.83143 1.23149L2.46981 2.25678H1.19305Z" />
<path d="M3.60838 17.2321C3.53328 17.0969 3.39075 17.0131 3.23611 17.0131H2.25677V6.0246C2.25677 5.78945 2.0661 5.59877 1.83094 5.59877C1.59578 5.59877 1.40511 5.78945 1.40511 6.0246V17.013H0.425816C0.271178 17.013 0.128649 17.0969 0.0535513 17.2321C-0.0215462 17.3674 -0.0173958 17.5326 0.0643423 17.6639L1.46947 19.9207C1.5472 20.0455 1.68387 20.1215 1.83094 20.1215C1.97806 20.1215 2.11473 20.0455 2.19241 19.9207L3.59754 17.6639C3.67937 17.5325 3.68352 17.3673 3.60838 17.2321ZM1.83099 18.89L1.19256 17.8647H2.46932L1.83099 18.89Z" />
<path d="M24.7991 22.8075L22.5424 21.4024C22.4111 21.3207 22.2458 21.3166 22.1106 21.3916C21.9754 21.4667 21.8915 21.6092 21.8915 21.7639V22.7432H7.98686V21.7639C7.98686 21.6092 7.90302 21.4667 7.76782 21.3916C7.63261 21.3166 7.46738 21.3207 7.33598 21.4024L5.0792 22.8075C4.95435 22.8853 4.87842 23.0219 4.87842 23.169C4.87842 23.3161 4.95435 23.4527 5.0792 23.5305L7.33598 24.9356C7.40473 24.9784 7.48286 24.9999 7.56103 24.9999C7.63217 24.9999 7.70336 24.9821 7.76777 24.9464C7.90302 24.8713 7.98686 24.7288 7.98686 24.5741V23.5948H21.8915V24.5741C21.8915 24.7288 21.9754 24.8713 22.1105 24.9464C22.175 24.9822 22.2462 24.9999 22.3173 24.9999C22.3955 24.9999 22.4736 24.9784 22.5424 24.9356L24.7991 23.5305C24.924 23.4527 24.9999 23.3161 24.9999 23.169C24.9999 23.0219 24.924 22.8853 24.7991 22.8075ZM7.1352 23.8074L6.10991 23.169L7.1352 22.5306V23.8074ZM22.7431 23.8074V22.5306L23.7685 23.169L22.7431 23.8074Z"/>
</g>
<defs>
<clipPath id="clip0">
<rect width="25" height="25"/>
</clipPath>
</defs>
</svg>
