<svg width="25" height="25" viewBox="0 0 25 25" xmlns="http://www.w3.org/2000/svg">
<g clip-path="url(#clip0)">
<path d="M24.5116 -0.0223389H17.0897C16.8201 -0.0223389 16.6015 0.226383 16.6015 0.533216V2.7556C16.6015 3.06244 16.8201 3.31116 17.0897 3.31116H18.0664V7.46638H8.78901C8.51938 7.46638 8.30073 7.7151 8.30073 8.02193V10.2443C8.30073 10.5511 8.51938 10.7998 8.78901 10.7998H9.76562V14.9551H0.488281C0.218604 14.9551 0 15.2039 0 15.5107V17.733C0 18.0398 0.218604 18.2885 0.488281 18.2885H1.17168V24.4666C1.17168 24.7735 1.39028 25.0222 1.65996 25.0222H10.535C10.6451 25.0222 10.752 24.9798 10.8383 24.9019L24.815 12.2924C24.9318 12.187 24.9999 12.0267 24.9999 11.8571V2.7556V0.533216C24.9999 0.226383 24.7813 -0.0223389 24.5116 -0.0223389ZM9.27729 9.68871V8.57749H18.0664V9.68871H9.27729ZM0.976562 17.1774V16.0663H9.76562V17.1774H0.976562ZM24.0233 4.38216H22.0197C21.75 4.38216 21.5314 4.63088 21.5314 4.93771C21.5314 5.24455 21.75 5.49327 22.0197 5.49327H24.0233V11.5885L10.3648 23.9111H2.14824V20.4526H4.15195C4.42158 20.4526 4.64023 20.2039 4.64023 19.897C4.64023 19.5902 4.42158 19.3415 4.15195 19.3415H2.14824V18.2885H10.2539C10.5236 18.2885 10.7422 18.0398 10.7422 17.733V15.5107V10.7998H18.5546C18.8243 10.7998 19.0429 10.5511 19.0429 10.2443V8.02193V3.31116H24.0233V4.38216ZM24.0233 2.20005H17.578V1.08877H24.0233V2.20005Z" />
</g>
<defs>
<clipPath id="clip0">
<rect width="25" height="25" fill="white"/>
</clipPath>
</defs>
</svg>
