<svg width="25" height="25" viewBox="0 0 25 25" xmlns="http://www.w3.org/2000/svg">
<g clip-path="url(#clip0)">
<path d="M13.9712 24.1314H4.99184C4.99184 24.1314 4.98896 17.8784 4.98461 17.8553C4.90514 16.3287 4.1311 14.8725 2.83263 13.8261C1.66345 12.884 0.992924 11.5518 0.992924 10.1712V6.54838C0.992924 6.30854 0.767754 6.11411 0.48987 6.11411C0.211986 6.11411 -0.0131836 6.30854 -0.0131836 6.54838V10.1712C-0.0131836 11.7917 0.773806 13.3553 2.14609 14.461C3.13777 15.2601 3.77041 16.3398 3.93975 17.4917H1.69722C1.41934 17.4917 1.19417 17.6862 1.19417 17.926V22.0949C1.19417 22.3348 1.41934 22.5292 1.69722 22.5292H3.98574V24.5658C3.98574 24.8056 4.21091 25 4.48879 25H13.9712C14.2491 25 14.4743 24.8056 14.4743 24.5658C14.4743 24.3259 14.2491 24.1314 13.9712 24.1314ZM3.98574 21.6605H2.20028V18.3602H3.98574V21.6605Z" />
<path d="M23.3924 10.08H10.0191V2.5874C10.0191 1.76191 9.24112 1.09033 8.28495 1.09033H5.50605V0.434277C5.50605 0.194434 5.28088 0 5.00299 0C4.72511 0 4.49994 0.194434 4.49994 0.434277V1.09028H1.72104C0.764758 1.09028 -0.0131836 1.76187 -0.0131836 2.5874V4.89814C-0.0131836 5.13799 0.211986 5.33242 0.489871 5.33242C0.767756 5.33242 0.992925 5.13799 0.992925 4.89814V3.73691H6.12387C6.40175 3.73691 6.62692 3.54248 6.62692 3.30264C6.62692 3.06279 6.40175 2.86836 6.12387 2.86836H0.992925V2.5874C0.992925 2.24082 1.31957 1.95884 1.72104 1.95884H8.28489C8.68631 1.95884 9.01295 2.24077 9.01295 2.58735V2.86831H7.80067C7.52279 2.86831 7.29762 3.06274 7.29762 3.30259C7.29762 3.54243 7.52279 3.73687 7.80067 3.73687H9.01289V12.5323C9.01289 12.7721 9.23806 12.9666 9.51595 12.9666H22.8377V13.6761H17.2912C17.0133 13.6761 16.7881 13.8706 16.7881 14.1104C16.7881 14.3502 17.0133 14.5447 17.2912 14.5447H22.8147C22.6349 16.3042 21.3743 17.8794 19.4994 18.6351C17.71 19.3563 16.5537 20.9319 16.5537 22.6489L16.5537 24.1314H15.648C15.3701 24.1314 15.145 24.3258 15.145 24.5657C15.145 24.8055 15.3701 25 15.648 25H17.0567C17.3346 25 17.5598 24.8055 17.5598 24.5657L17.5598 22.6489C17.5598 21.2678 18.4882 20.0012 19.925 19.4221C22.3056 18.4625 23.8438 16.3776 23.8438 14.1104V12.9109C24.5182 12.7417 25.0127 12.2038 25.0127 11.5677V11.4789C25.0128 10.7075 24.2859 10.08 23.3924 10.08ZM23.3924 12.098H23.3409H10.0191V10.9485H23.3923C23.7311 10.9485 24.0066 11.1864 24.0066 11.4788V11.5677H24.0066C24.0067 11.8601 23.7312 12.098 23.3924 12.098Z" />
</g>
<defs>
<clipPath id="clip0">
<rect width="25" height="25" fill="white"/>
</clipPath>
</defs>
</svg>
