<?xml version="1.0" encoding="utf-8"?><svg viewBox="0 0 27 25" xmlns="http://www.w3.org/2000/svg" xmlns:xlink="http://www.w3.org/1999/xlink"><style>:root>svg{display:none}:root>svg:target{display:block}</style><svg viewBox="0 0 14 7" id="arrow" xmlns="http://www.w3.org/2000/svg"><path fill-rule="evenodd" clip-rule="evenodd" d="M0 2.985h8V0l6 3.5-6 3.498V4.017H0V2.985z"/></svg><svg viewBox="0 0 25 19" id="bed" xmlns="http://www.w3.org/2000/svg"><g clip-path="url(#bclip0)"><path d="M24.583 6.603h-2.485a.417.417 0 00-.418.417v2.33a2.745 2.745 0 00-1.92-.782h-6.132c.125-.195.246-.395.36-.598a.418.418 0 000-.41 12.012 12.012 0 00-4.644-4.643.417.417 0 00-.409 0 12.01 12.01 0 00-4.643 4.644.418.418 0 000 .409c.125.222.257.44.395.654a2.751 2.751 0 00-1.367.726V1.016A.417.417 0 002.902.6H.417A.417.417 0 000 1.016v1.958a.417.417 0 10.835 0v-1.54h1.65v16.132H.835V4.532a.417.417 0 10-.835 0v13.451c0 .231.187.418.417.418h2.485a.418.418 0 00.418-.418v-1.382h18.36v1.383c0 .23.187.417.418.417h2.485c.23 0 .417-.187.417-.418V7.02a.417.417 0 00-.417-.417zM9.14 3.763a11.165 11.165 0 014.002 4.002c-.162.277-.336.545-.518.803H5.656a11.758 11.758 0 01-.518-.803A11.162 11.162 0 019.14 3.763zm12.54 12.004H3.32v-3.964h14.794a.417.417 0 000-.835H3.353c.167-.89.95-1.565 1.887-1.565h14.52c.938 0 1.72.675 1.887 1.565h-2.142a.417.417 0 000 .835h2.175v3.964zm2.485 1.8h-1.65V7.436h1.65v10.13z"/></g><defs><clipPath id="bclip0"><path fill="#fff" d="M0 0h25v19H0z"/></clipPath></defs></svg><svg viewBox="0 0 25 25" id="facade" xmlns="http://www.w3.org/2000/svg"><g clip-path="url(#cclip0)"><path d="M25 6.334c0-.937-.656-1.7-1.462-1.7-.238 0-.432.225-.432.503s.193.503.432.503c.33 0 .597.312.597.694 0 .383-.268.694-.597.694H7.361l.288-3.407a.558.558 0 00-.11-.387.408.408 0 00-.32-.165H5.875C6.078 2.054 7 1.274 7.915 1.059c.233-.054.385-.32.338-.592-.048-.273-.275-.45-.51-.394a3.59 3.59 0 00-1.124.473L6.593.39c-.046-.272-.273-.45-.508-.397-.234.054-.387.318-.341.591l.106.63c-.175.202-.325.42-.448.647A3.568 3.568 0 003.062.073c-.235-.055-.463.121-.51.394-.048.272.104.538.338.593.24.056.481.152.71.28a.56.56 0 00-.1.675.42.42 0 00.362.228.389.389 0 00.236-.081l.266-.203c.277.315.482.692.565 1.11H3.672a.408.408 0 00-.32.165.557.557 0 00-.11.387l.288 3.407H1.461c-.328 0-.596-.311-.596-.694 0-.382.268-.694.596-.694.24 0 .433-.225.433-.503s-.194-.503-.433-.503C.656 4.634 0 5.397 0 6.334c0 .938.656 1.701 1.462 1.701h.093c.748.977.962 2.364.54 3.59l-.92 2.678c-.808 2.35-.503 4.984.752 6.985h-.721c-.24 0-.433.226-.433.503v2.722c0 .278.194.503.433.503h19.016c.238 0 .432-.225.432-.503s-.193-.504-.432-.504H1.638v-1.714h21.91v1.714h-1.884c-.24 0-.433.226-.433.504s.193.503.432.503h2.318c.24 0 .433-.225.433-.503V21.79c0-.277-.194-.503-.433-.503h-.721c1.255-2.001 1.56-4.634.752-6.985l-.92-2.678c-.423-1.228-.207-2.617.543-3.594C24.396 7.973 25 7.234 25 6.334zM6.742 4.075l-.25 2.953H4.4l-.25-2.953h2.59zM3.049 21.288c-1.428-1.772-1.85-4.344-1.07-6.611l.92-2.678a5.114 5.114 0 00-.274-3.964H4.2c.55.994.7 2.39.38 3.632l-.693 2.678c-.604 2.334-.367 4.957.588 6.943H3.049zM9.52 11.76l-.241 2.677c-.208 2.312-.119 4.916.223 6.851h-1.49c-.691-1.817-.887-4.404-.493-6.7l.198-1.155c.047-.272-.105-.538-.34-.592-.234-.054-.461.123-.508.395l-.198 1.155c-.398 2.32-.234 4.933.407 6.897H5.492c-1.06-1.79-1.368-4.37-.777-6.653l.693-2.678c.337-1.303.242-2.754-.225-3.922h1.713c.35 1.012.446 2.444.234 3.679-.046.272.106.537.34.592a.41.41 0 00.085.01c.202 0 .383-.166.424-.405.22-1.288.153-2.728-.163-3.876h1.592c.18 1.05.226 2.462.112 3.725zm2.547 9.528h-1.68c-.357-1.85-.455-4.444-.248-6.746l.241-2.678c.115-1.277.077-2.706-.093-3.829h1.78v13.253zm2.733 0h-1.868V8.035H14.9c-.17 1.123-.208 2.552-.093 3.83l.24 2.677c.208 2.303.11 4.896-.247 6.746zm2.374 0h-1.49c.343-1.935.432-4.54.224-6.85l-.24-2.679c-.115-1.263-.07-2.674.112-3.724h1.591c-.316 1.148-.384 2.588-.163 3.876l.46 2.677c.394 2.296.198 4.883-.494 6.7zm6.035-6.611c.78 2.267.357 4.839-1.07 6.611h-1.426c.406-.843.687-1.81.825-2.846.036-.274-.126-.532-.362-.574-.236-.043-.457.146-.493.42-.15 1.13-.49 2.16-.988 3h-1.586c.641-1.964.805-4.576.407-6.897l-.46-2.678c-.211-1.234-.115-2.666.235-3.678h1.713c-.467 1.167-.562 2.62-.225 3.922l.693 2.678c.178.687.276 1.41.293 2.15.006.274.198.491.432.491h.011c.239-.007.428-.238.422-.516a10.583 10.583 0 00-.33-2.416l-.692-2.677c-.322-1.242-.17-2.638.38-3.632h1.574a5.113 5.113 0 00-.274 3.964l.92 2.678z"/></g><defs><clipPath id="cclip0"><path fill="#fff" d="M0 0h25v25H0z"/></clipPath></defs></svg><svg viewBox="0 0 25 21" id="hearth" xmlns="http://www.w3.org/2000/svg"><g clip-path="url(#dclip0)"><path d="M24.578.015H6.616a.418.418 0 00-.422.413c0 .228.189.413.422.413h17.54v1.262H.844V.841h4.363A.418.418 0 005.63.428a.418.418 0 00-.423-.413H.422A.418.418 0 000 .428v2.088c0 .228.19.413.422.413h.479v17.643c0 .228.189.413.422.413h22.354a.418.418 0 00.422-.413V2.929h.479A.418.418 0 0025 2.516V.428a.418.418 0 00-.422-.413zm-1.323 18.383h-1.549a.418.418 0 00-.422.413c0 .228.189.412.422.412h1.549v.936H1.744v-.936h18.553a.418.418 0 00.423-.412.418.418 0 00-.423-.413h-2.646v-7.466c0-2.777-2.311-5.036-5.152-5.036-2.84 0-5.152 2.26-5.152 5.036v1.66c0 .227.19.412.422.412a.418.418 0 00.423-.413v-1.66c0-2.32 1.932-4.21 4.307-4.21 2.375 0 4.308 1.89 4.308 4.21v7.467h-1.56l.209-.145a.407.407 0 00.1-.576l-1.108-1.526a.43.43 0 00-.589-.098l-1.36.944-1.36-.944a.43.43 0 00-.588.098l-1.109 1.526a.407.407 0 00.1.576l.21.145h-1.56v-4.43a.418.418 0 00-.423-.413.418.418 0 00-.422.412v4.43H1.746V2.93h5.292H6.5l-2.896-.826a.418.418 0 00-.423.413c0 .228.19.413.423.413H5.63l.281-.826H4.87a.418.418 0 00-.422.413c0 .228.19.413.422.413h3.491a.418.418 0 00.423-.413.418.418 0 00-.423-.413H6.757l.281.826h4.026c.233 0-.064-.201-.064-.429.233 0 0-.228 0 0l-2.807.429h-.31 15.372v15.469zm-12.878-.58l.619-.852 2.065 1.432h-1.85l-.835-.58zm2.853-.315l.774-.537.62.853-.47.325-.924-.641z"/><path d="M22.04 12h-2.618a.418.418 0 00-.422.413c0 .228.19.413.422.413h.507v.688c0 .228.19.412.422.412a.418.418 0 00.423-.412v-.688h1.267a.418.418 0 00.422-.413.418.418 0 00-.422-.413zm-7.087-1.249a.428.428 0 00-.582-.131.407.407 0 00-.134.569c.432.676.609 1.369.525 2.06-.083.684-.483 1.09-.873 1.325l.001-.08c0-.553-.299-.9-.563-1.205-.262-.303-.489-.566-.514-1.065a.413.413 0 00-.233-.349.43.43 0 00-.425.027c-1.087.717-1.463 1.704-1.066 2.75-.406-.214-.854-.609-.87-1.316-.018-.772.323-1.084.796-1.516.54-.494 1.193-1.091 1.364-2.446.299.202.677.485 1.043.838a.43.43 0 00.598-.004.406.406 0 00-.005-.584 8.594 8.594 0 00-1.819-1.333.431.431 0 00-.415.012.41.41 0 00-.204.353c0 1.52-.553 2.025-1.139 2.561-.511.467-1.09.997-1.064 2.137.024 1.016.685 1.846 1.77 2.222a.7.7 0 00.758-.196.67.67 0 00.092-.768c-.327-.611-.284-1.142.136-1.61.146.35.363.602.552.82.239.277.364.432.364.671a1.8 1.8 0 01-.016.24.675.675 0 00.28.642.714.714 0 00.714.066c.904-.42 1.463-1.163 1.577-2.095.107-.882-.111-1.755-.648-2.595z"/></g><defs><clipPath id="dclip0"><path fill="#fff" d="M0 0h25v21H0z"/></clipPath></defs></svg><svg viewBox="0 0 27 25" id="house" xmlns="http://www.w3.org/2000/svg"><g clip-path="url(#eclip0)"><path d="M26.118 12.992l-8.671-8.808V1.708h3.263v4.977c0 .254.202.46.452.46s.451-.206.451-.46V1.25a.455.455 0 00-.451-.459h-4.167a.455.455 0 00-.451.46v2.016l-3.1-3.148a.448.448 0 00-.638 0l-3.761 3.82a.464.464 0 000 .649.447.447 0 00.639 0l3.441-3.496 3.55 3.606.003.003 4.957 5.036V24.1H12.77V13.56a.455.455 0 00-.451-.458H6.198a.455.455 0 00-.452.458V24.1h-1.13V9.736L8.56 5.728a.464.464 0 000-.649.447.447 0 00-.638 0l-7.79 7.913a.464.464 0 000 .649.446.446 0 00.639 0l2.94-2.988v13.905c0 .253.203.459.453.459h17.922c.25 0 .452-.206.452-.46V10.654l2.941 2.988a.446.446 0 00.639 0 .464.464 0 000-.649zM11.868 24.1H6.65V14.02h5.217V24.1z"/><path d="M19.425 13h-3.973a.455.455 0 00-.452.459v4.037c0 .253.202.458.452.458h3.973c.25 0 .452-.205.452-.458v-4.037a.455.455 0 00-.452-.459zm-.451 4.037h-3.07v-3.12h3.07v3.12z"/></g><defs><clipPath id="eclip0"><path fill="#fff" d="M0 0h26.25v25H0z"/></clipPath></defs></svg><svg viewBox="0 0 25 25" id="plan" xmlns="http://www.w3.org/2000/svg"><g clip-path="url(#fclip0)"><path d="M24.574 2.192c.235 0 .426-.19.426-.426V.426A.426.426 0 0024.574 0H5.304a.426.426 0 00-.426.426v19.27c0 .235.191.425.426.425h19.27c.235 0 .426-.19.426-.425V3.186a.426.426 0 10-.852 0v7.296h-1.691a.426.426 0 100 .851h1.691v7.937H11.982v-2.06a.426.426 0 00-.852 0v2.06h-5.4V.852h5.4v13.291a.426.426 0 10.852 0v-2.81h7.58a.426.426 0 100-.851h-7.58V.851h12.166v.914c0 .236.19.426.426.426zm-20.976.266L2.193.2a.426.426 0 00-.723 0L.065 2.458a.426.426 0 00.361.65h.98V4.89a.426.426 0 00.851 0V3.11h.98a.426.426 0 00.361-.651zm-2.405-.201l.638-1.026.639 1.026H1.193zm2.415 14.975a.426.426 0 00-.372-.219h-.98V6.025a.426.426 0 00-.85 0v10.988h-.98a.426.426 0 00-.362.65l1.405 2.258a.426.426 0 00.723 0l1.406-2.257a.426.426 0 00.01-.432zM1.831 18.89l-.638-1.025h1.276l-.638 1.025zM24.8 22.808l-2.258-1.406a.426.426 0 00-.65.362v.98H7.987v-.98a.426.426 0 00-.651-.362l-2.257 1.405a.426.426 0 000 .724l2.257 1.405a.426.426 0 00.65-.362v-.98h13.905v.98a.426.426 0 00.651.362L24.8 23.53a.426.426 0 000-.723zm-17.665 1l-1.025-.639 1.025-.638v1.276zm15.608 0V22.53l1.026.638-1.026.638z"/></g><defs><clipPath id="fclip0"><path d="M0 0h25v25H0z"/></clipPath></defs></svg><svg viewBox="0 0 25 25" id="stair" xmlns="http://www.w3.org/2000/svg"><g clip-path="url(#gclip0)"><path d="M24.512-.022H17.09c-.27 0-.488.248-.488.555v2.223c0 .306.218.555.488.555h.976v4.155H8.79c-.27 0-.488.25-.488.556v2.222c0 .307.218.556.488.556h.977v4.155H.488c-.27 0-.488.249-.488.556v2.222c0 .307.219.555.488.555h.684v6.179c0 .306.218.555.488.555h8.875a.45.45 0 00.303-.12l13.977-12.61a.587.587 0 00.185-.435V.533c0-.307-.219-.555-.488-.555zM9.277 9.688v-1.11h8.79v1.11h-8.79zm-8.3 7.49v-1.112h8.789v1.111H.976zM24.023 4.381H22.02c-.27 0-.489.249-.489.556 0 .307.219.555.489.555h2.003v6.095L10.365 23.912H2.148v-3.458h2.004c.27 0 .488-.25.488-.556 0-.307-.218-.555-.488-.555H2.148V18.29h8.106c.27 0 .488-.25.488-.556V10.8h7.813c.27 0 .488-.249.488-.556V3.312h4.98v1.07zm0-2.182h-6.445v-1.11h6.445V2.2z"/></g><defs><clipPath id="gclip0"><path fill="#fff" d="M0 0h25v25H0z"/></clipPath></defs></svg><svg viewBox="0 0 25 25" id="wc" xmlns="http://www.w3.org/2000/svg"><g clip-path="url(#hclip0)"><path d="M13.971 24.131h-8.98s-.002-6.253-.006-6.276c-.08-1.526-.854-2.982-2.152-4.029-1.17-.942-1.84-2.274-1.84-3.655V6.548c0-.24-.225-.434-.503-.434s-.503.195-.503.434v3.623c0 1.62.787 3.184 2.16 4.29.99.8 1.623 1.879 1.793 3.03H1.697c-.278 0-.503.195-.503.435v4.169c0 .24.225.434.503.434h2.289v2.037c0 .24.225.434.503.434h9.482c.278 0 .503-.194.503-.434s-.225-.435-.503-.435zm-9.985-2.47H2.2v-3.3h1.786v3.3z"/><path d="M23.392 10.08H10.02V2.587c0-.825-.778-1.497-1.734-1.497h-2.78V.434c0-.24-.225-.434-.503-.434S4.5.194 4.5.434v.656H1.72c-.956 0-1.734.672-1.734 1.497v2.311c0 .24.225.434.503.434s.503-.194.503-.434V3.737h5.13c.279 0 .504-.195.504-.434 0-.24-.225-.435-.503-.435H.993v-.28c0-.347.327-.63.728-.63h6.564c.401 0 .728.283.728.63v.28H7.801c-.278 0-.503.195-.503.435s.225.434.503.434h1.212v8.795c0 .24.225.435.503.435h13.322v.71H17.29c-.278 0-.503.194-.503.433 0 .24.225.435.503.435h5.524c-.18 1.76-1.44 3.334-3.316 4.09-1.789.721-2.945 2.297-2.945 4.014v1.482h-.906c-.278 0-.503.195-.503.435s.225.434.503.434h1.409c.278 0 .503-.195.503-.434v-1.917c0-1.381.928-2.648 2.365-3.227 2.38-.96 3.919-3.044 3.919-5.312v-1.2c.674-.168 1.169-.706 1.169-1.342v-.09c0-.77-.727-1.398-1.62-1.398zm0 2.018H10.02v-1.15h13.373c.34 0 .615.238.615.53v.09c0 .292-.276.53-.615.53z"/></g><defs><clipPath id="hclip0"><path fill="#fff" d="M0 0h25v25H0z"/></clipPath></defs></svg></svg>