<svg xmlns="http://www.w3.org/2000/svg" width="30" height="35" viewBox="0 0 30 35">
<defs/>
  <path style=" fill: #cfcfcf; fill-rule: evenodd;" d="M1223.07,10757.1a1.469,1.469,0,0,1,1.29.1l4.94,3a2.624,2.624,0,0,1,.69.5,3.832,3.832,0,0,1,.49.8,1.294,1.294,0,0,0,.06.2,1.969,1.969,0,0,1,.12.4,15.73,15.73,0,0,1,.29,1.9,14.58,14.58,0,0,1-.12,3.4,25.781,25.781,0,0,1-1.16,4.8,29.977,29.977,0,0,1-2.81,6.1,35.669,35.669,0,0,1-2.98,4.6,29.6,29.6,0,0,1-2.85,3.2,21.45,21.45,0,0,1-2.52,2,11.536,11.536,0,0,1-2.07,1.2,3.607,3.607,0,0,1-1.42.5c-0.36.1-.56,0.2-0.6,0.2a2.921,2.921,0,0,1-.91-0.1,1.228,1.228,0,0,1-.83-0.3l-4.97-2.9a1.328,1.328,0,0,1-.66-0.9,1,1,0,0,1,.04-0.7,1.733,1.733,0,0,1,.41-0.7l5.14-4.9a1.64,1.64,0,0,1,.99-0.4,2.045,2.045,0,0,1,1.08.3l1.83,1a0.2,0.2,0,0,0,.22.1h0.23a4.507,4.507,0,0,0,1.27-1,12.545,12.545,0,0,0,1.43-1.5,27.867,27.867,0,0,0,1.79-2.8,26.572,26.572,0,0,0,1.47-3,21.644,21.644,0,0,0,.65-2.1,4.532,4.532,0,0,0,.14-1.2l-0.02-.4a0.825,0.825,0,0,1-.1-0.2,0.146,0.146,0,0,0-.15-0.1l-2.16-1.3a1.872,1.872,0,0,1-.81-1.1,1.743,1.743,0,0,1-.03-0.9h-0.01l1.84-6.8A1.518,1.518,0,0,1,1223.07,10757.1Z" transform="translate(-1204 -10756)"/>
</svg>