<svg xmlns="http://www.w3.org/2000/svg" width="30" height="35" viewBox="0 0 30 35">
<defs/>
  <path style="fill: #cfcfcf; fill-rule: evenodd;" d="M1231.01,10848.5a11.912,11.912,0,0,0-4.5-9.2l-1.5-8.3h-12l-1.5,8.3a11.912,11.912,0,0,0-4.5,9.2,12.069,12.069,0,0,0,4.5,9.2l1.5,8.3h12l1.5-8.3A12.069,12.069,0,0,0,1231.01,10848.5Zm-21,0a9,9,0,1,1,9,8.8A8.954,8.954,0,0,1,1210.01,10848.5Zm8.99,0.5h-1v-7h1v7Zm0,0v-1h5v1h-5Zm-0.5-2a1.5,1.5,0,1,1-1.5,1.5A1.517,1.517,0,0,1,1218.5,10847Z" transform="translate(-1204 -10831)"/>
</svg>